M48
; DRILL file {KiCad 9.0.4-9.0.4-0~ubuntu22.04.1} date 2025-09-16T22:55:51+0300
; FORMAT={-:-/ absolute / metric / decimal}
; #@! TF.CreationDate,2025-09-16T22:55:51+03:00
; #@! TF.GenerationSoftware,Kicad,Pcbnew,9.0.4-9.0.4-0~ubuntu22.04.1
; #@! TF.FileFunction,Plated,1,2,PTH
FMAT,2
METRIC
; #@! TA.AperFunction,Plated,PTH,ViaDrill
T1C0.300
; #@! TA.AperFunction,Plated,PTH,ComponentDrill
T2C0.600
; #@! TA.AperFunction,Plated,PTH,ComponentDrill
T3C1.000
%
G90
G05
T1
X135.34Y-79.74
X136.13Y-90.1
X136.93Y-92.83
X137.53Y-79.74
X138.69Y-71.28
X140.07Y-68.81
X140.21Y-72.11
X140.45Y-79.74
X141.45Y-99.707
X141.55Y-69.66
X141.87Y-85.55
X142.23Y-73.08
X142.47Y-71.24
X143.0Y-88.04
X143.19Y-79.74
X143.39Y-71.23
X143.91Y-69.58
X143.96Y-73.18
X145.0Y-69.0
X145.52Y-89.96
X145.55Y-79.74
X145.6Y-103.94
X145.7Y-73.28
X145.73Y-84.5
X146.3Y-69.08
X146.38Y-67.87
X146.52Y-66.43
X146.74Y-87.58
X147.12Y-74.42
X147.92Y-79.74
X148.18Y-66.12
X148.37Y-75.65
X148.59Y-73.56
X149.13Y-101.01
X149.25Y-68.98
X149.52Y-74.45
X149.75Y-77.0
X149.96Y-66.23
X150.22Y-79.74
X150.37Y-73.56
X150.67Y-75.66
X150.843Y-100.08
X150.91Y-78.27
X151.62Y-66.2
X151.74Y-76.69
X151.97Y-73.6
X152.42Y-79.74
X152.52Y-69.0
X152.593Y-105.27
X152.74Y-77.62
X153.13Y-66.21
X153.64Y-73.62
X154.05Y-79.74
X154.21Y-77.66
X155.07Y-73.84
X155.15Y-66.32
X155.22Y-79.74
X155.82Y-85.01
X155.85Y-94.63
X156.01Y-69.22
X156.15Y-67.96
X156.21Y-77.66
X156.28Y-96.59
X157.57Y-100.49
X157.745Y-73.555
X157.8Y-70.27
X157.98Y-94.92
X158.32Y-71.46
X158.81Y-89.44
X158.89Y-86.24
X159.42Y-63.99
X159.79Y-71.51
X159.86Y-94.27
X159.89Y-100.49
X160.05Y-90.67
X160.1Y-69.35
X160.14Y-92.76
X160.49Y-108.16
X160.62Y-89.74
X160.92Y-63.09
X160.96Y-87.23
X161.02Y-69.36
X161.15Y-91.75
X161.54Y-106.52
X162.05Y-69.31
X162.05Y-90.77
X162.1Y-92.74
X162.15Y-89.16
X162.24Y-71.35
X162.44Y-100.45
X162.65Y-65.6
X162.76Y-79.74
X163.5Y-94.26
X163.62Y-89.32
X163.97Y-69.33
X164.2Y-72.89
X164.74Y-71.61
X165.38Y-69.67
X165.66Y-79.74
X165.99Y-73.24
X166.12Y-71.48
X166.69Y-69.69
X167.13Y-106.31
X167.66Y-100.74
X167.71Y-77.15
X168.33Y-69.53
X168.64Y-108.41
X168.67Y-75.64
X168.81Y-98.01
X168.81Y-100.82
X169.12Y-90.41
X169.34Y-78.42
X169.6Y-71.16
X170.22Y-99.13
X170.53Y-69.52
X170.99Y-100.91
X171.37Y-71.11
X171.44Y-97.31
X171.83Y-105.16
X172.02Y-99.57
X172.03Y-69.5
X172.52Y-79.74
X173.27Y-71.16
X173.59Y-93.99
X173.86Y-69.5
X174.86Y-71.15
X175.11Y-79.74
X175.39Y-69.5
X176.34Y-71.19
X177.46Y-79.74
X178.13Y-72.23
X178.14Y-69.64
X179.54Y-68.94
X179.56Y-72.08
X180.45Y-79.74
X180.86Y-71.36
X183.52Y-79.74
T3
X150.31Y-83.78
X150.31Y-86.32
X150.31Y-88.86
T2
G00X155.653Y-102.32
M15
G01X155.653Y-103.42
M16
G05
G00X155.653Y-106.75
M15
G01X155.653Y-107.35
M16
G05
G00X164.293Y-102.32
M15
G01X164.293Y-103.42
M16
G05
G00X164.293Y-106.75
M15
G01X164.293Y-107.35
M16
G05
M30
