%TF.GenerationSoftware,KiCad,Pcbnew,9.0.4-9.0.4-0~ubuntu22.04.1*%
%TF.CreationDate,2025-09-16T22:55:19+03:00*%
%TF.ProjectId,hexaGenMini-v1,68657861-4765-46e4-9d69-6e692d76312e,rev?*%
%TF.SameCoordinates,Original*%
%TF.FileFunction,Paste,Top*%
%TF.FilePolarity,Positive*%
%FSLAX46Y46*%
G04 Gerber Fmt 4.6, Leading zero omitted, Abs format (unit mm)*
G04 Created by KiCad (PCBNEW 9.0.4-9.0.4-0~ubuntu22.04.1) date 2025-09-16 22:55:19*
%MOMM*%
%LPD*%
G01*
G04 APERTURE LIST*
G04 Aperture macros list*
%AMRoundRect*
0 Rectangle with rounded corners*
0 $1 Rounding radius*
0 $2 $3 $4 $5 $6 $7 $8 $9 X,Y pos of 4 corners*
0 Add a 4 corners polygon primitive as box body*
4,1,4,$2,$3,$4,$5,$6,$7,$8,$9,$2,$3,0*
0 Add four circle primitives for the rounded corners*
1,1,$1+$1,$2,$3*
1,1,$1+$1,$4,$5*
1,1,$1+$1,$6,$7*
1,1,$1+$1,$8,$9*
0 Add four rect primitives between the rounded corners*
20,1,$1+$1,$2,$3,$4,$5,0*
20,1,$1+$1,$4,$5,$6,$7,0*
20,1,$1+$1,$6,$7,$8,$9,0*
20,1,$1+$1,$8,$9,$2,$3,0*%
G04 Aperture macros list end*
%ADD10RoundRect,0.200000X0.275000X-0.200000X0.275000X0.200000X-0.275000X0.200000X-0.275000X-0.200000X0*%
%ADD11RoundRect,0.225000X-0.225000X-0.250000X0.225000X-0.250000X0.225000X0.250000X-0.225000X0.250000X0*%
%ADD12RoundRect,0.140000X-0.170000X0.140000X-0.170000X-0.140000X0.170000X-0.140000X0.170000X0.140000X0*%
%ADD13RoundRect,0.140000X0.170000X-0.140000X0.170000X0.140000X-0.170000X0.140000X-0.170000X-0.140000X0*%
%ADD14RoundRect,0.200000X0.200000X0.275000X-0.200000X0.275000X-0.200000X-0.275000X0.200000X-0.275000X0*%
%ADD15R,0.900000X1.700000*%
%ADD16RoundRect,0.140000X0.140000X0.170000X-0.140000X0.170000X-0.140000X-0.170000X0.140000X-0.170000X0*%
%ADD17RoundRect,0.250000X-0.475000X0.250000X-0.475000X-0.250000X0.475000X-0.250000X0.475000X0.250000X0*%
%ADD18RoundRect,0.250000X-0.457500X-0.445000X0.457500X-0.445000X0.457500X0.445000X-0.457500X0.445000X0*%
%ADD19RoundRect,0.200000X-0.275000X0.200000X-0.275000X-0.200000X0.275000X-0.200000X0.275000X0.200000X0*%
%ADD20R,1.700000X0.900000*%
%ADD21RoundRect,0.090000X-0.660000X-0.360000X0.660000X-0.360000X0.660000X0.360000X-0.660000X0.360000X0*%
%ADD22RoundRect,0.250000X-0.250000X-0.475000X0.250000X-0.475000X0.250000X0.475000X-0.250000X0.475000X0*%
%ADD23RoundRect,0.162500X0.650000X0.162500X-0.650000X0.162500X-0.650000X-0.162500X0.650000X-0.162500X0*%
%ADD24RoundRect,0.200000X-0.200000X-0.275000X0.200000X-0.275000X0.200000X0.275000X-0.200000X0.275000X0*%
%ADD25RoundRect,0.218750X0.218750X0.256250X-0.218750X0.256250X-0.218750X-0.256250X0.218750X-0.256250X0*%
%ADD26RoundRect,0.225000X0.250000X-0.225000X0.250000X0.225000X-0.250000X0.225000X-0.250000X-0.225000X0*%
%ADD27RoundRect,0.140000X-0.140000X-0.170000X0.140000X-0.170000X0.140000X0.170000X-0.140000X0.170000X0*%
%ADD28RoundRect,0.225000X0.225000X0.250000X-0.225000X0.250000X-0.225000X-0.250000X0.225000X-0.250000X0*%
%ADD29RoundRect,0.250000X-0.450000X-0.350000X0.450000X-0.350000X0.450000X0.350000X-0.450000X0.350000X0*%
%ADD30RoundRect,0.250000X0.450000X0.350000X-0.450000X0.350000X-0.450000X-0.350000X0.450000X-0.350000X0*%
%ADD31RoundRect,0.375000X-0.625000X-0.375000X0.625000X-0.375000X0.625000X0.375000X-0.625000X0.375000X0*%
%ADD32RoundRect,0.500000X-0.500000X-1.400000X0.500000X-1.400000X0.500000X1.400000X-0.500000X1.400000X0*%
%ADD33R,0.600000X1.450000*%
%ADD34R,0.300000X1.450000*%
%ADD35RoundRect,0.250000X-0.400000X-0.450000X0.400000X-0.450000X0.400000X0.450000X-0.400000X0.450000X0*%
%ADD36RoundRect,0.249999X0.395001X0.395001X-0.395001X0.395001X-0.395001X-0.395001X0.395001X-0.395001X0*%
%ADD37RoundRect,0.050000X0.387500X0.050000X-0.387500X0.050000X-0.387500X-0.050000X0.387500X-0.050000X0*%
%ADD38RoundRect,0.050000X0.050000X0.387500X-0.050000X0.387500X-0.050000X-0.387500X0.050000X-0.387500X0*%
%ADD39R,0.450000X1.750000*%
%ADD40RoundRect,0.075000X0.075000X0.075000X-0.075000X0.075000X-0.075000X-0.075000X0.075000X-0.075000X0*%
G04 APERTURE END LIST*
D10*
%TO.C,R7*%
X159220000Y-98225000D03*
X159220000Y-96575000D03*
%TD*%
D11*
%TO.C,C7*%
X154525000Y-98070000D03*
X156075000Y-98070000D03*
%TD*%
D12*
%TO.C,C23*%
X159935000Y-60710000D03*
X159935000Y-61670000D03*
%TD*%
D10*
%TO.C,R15*%
X160995000Y-78505000D03*
X160995000Y-76855000D03*
%TD*%
D13*
%TO.C,C14*%
X154630000Y-93850000D03*
X154630000Y-92890000D03*
%TD*%
D14*
%TO.C,R9*%
X173675000Y-102680000D03*
X172025000Y-102680000D03*
%TD*%
D15*
%TO.C,SW2*%
X170230000Y-105110000D03*
X173630000Y-105110000D03*
%TD*%
D16*
%TO.C,C27*%
X152530833Y-71705000D03*
X151570833Y-71705000D03*
%TD*%
D17*
%TO.C,C1*%
X147772500Y-104870000D03*
X147772500Y-106770000D03*
%TD*%
D18*
%TO.C,C25*%
X165467500Y-61620000D03*
X168172500Y-61620000D03*
%TD*%
D19*
%TO.C,R10*%
X165145000Y-64295000D03*
X165145000Y-65945000D03*
%TD*%
%TO.C,R17*%
X145617500Y-70385000D03*
X145617500Y-72035000D03*
%TD*%
D14*
%TO.C,R5*%
X167905000Y-84450000D03*
X166255000Y-84450000D03*
%TD*%
D16*
%TO.C,C5*%
X167570000Y-89230000D03*
X166610000Y-89230000D03*
%TD*%
D20*
%TO.C,SW1*%
X153800000Y-82730000D03*
X153800000Y-86130000D03*
%TD*%
D12*
%TO.C,C24*%
X163935000Y-60710000D03*
X163935000Y-61670000D03*
%TD*%
D19*
%TO.C,R11*%
X166635000Y-64295000D03*
X166635000Y-65945000D03*
%TD*%
D21*
%TO.C,D2*%
X157522540Y-82350000D03*
X157522540Y-85650000D03*
X162422540Y-85650000D03*
X162422540Y-82350000D03*
%TD*%
D12*
%TO.C,C21*%
X162935000Y-60710000D03*
X162935000Y-61670000D03*
%TD*%
D14*
%TO.C,R8*%
X170665000Y-102680000D03*
X169015000Y-102680000D03*
%TD*%
D22*
%TO.C,C4*%
X150842500Y-100080000D03*
X152742500Y-100080000D03*
%TD*%
D16*
%TO.C,C30*%
X154420000Y-68240000D03*
X153460000Y-68240000D03*
%TD*%
D14*
%TO.C,R19*%
X165845000Y-82340000D03*
X164195000Y-82340000D03*
%TD*%
D13*
%TO.C,C16*%
X156550000Y-93850000D03*
X156550000Y-92890000D03*
%TD*%
D23*
%TO.C,U5*%
X173587500Y-100925000D03*
X173587500Y-99655000D03*
X173587500Y-98385000D03*
X173587500Y-97115000D03*
X166412500Y-97115000D03*
X166412500Y-98385000D03*
X166412500Y-99655000D03*
X166412500Y-100925000D03*
%TD*%
D24*
%TO.C,R2*%
X151187500Y-108710000D03*
X152837500Y-108710000D03*
%TD*%
D25*
%TO.C,L3*%
X148665000Y-70460000D03*
X147090000Y-70460000D03*
%TD*%
D26*
%TO.C,C8*%
X156280000Y-96590000D03*
X156280000Y-95040000D03*
%TD*%
D24*
%TO.C,R1*%
X151187500Y-107210000D03*
X152837500Y-107210000D03*
%TD*%
D16*
%TO.C,C12*%
X154360000Y-94910000D03*
X153400000Y-94910000D03*
%TD*%
D13*
%TO.C,C15*%
X155590000Y-93850000D03*
X155590000Y-92890000D03*
%TD*%
D12*
%TO.C,C2*%
X146292500Y-104550000D03*
X146292500Y-105510000D03*
%TD*%
D27*
%TO.C,C3*%
X150512500Y-98600000D03*
X151472500Y-98600000D03*
%TD*%
D28*
%TO.C,C18*%
X167605000Y-102680000D03*
X166055000Y-102680000D03*
%TD*%
D19*
%TO.C,R16*%
X156117500Y-70385000D03*
X156117500Y-72035000D03*
%TD*%
D16*
%TO.C,C29*%
X147777500Y-71705000D03*
X146817500Y-71705000D03*
%TD*%
D29*
%TO.C,Y1*%
X166000000Y-87830000D03*
X168200000Y-87830000D03*
X168200000Y-86130000D03*
X166000000Y-86130000D03*
%TD*%
D12*
%TO.C,C19*%
X158275000Y-76630000D03*
X158275000Y-77590000D03*
%TD*%
D25*
%TO.C,L1*%
X154652500Y-70460000D03*
X153077500Y-70460000D03*
%TD*%
D30*
%TO.C,Y2*%
X162650000Y-63400000D03*
X160110000Y-63400000D03*
X160110000Y-65600000D03*
X162650000Y-65600000D03*
%TD*%
D24*
%TO.C,R3*%
X151187500Y-103340000D03*
X152837500Y-103340000D03*
%TD*%
D14*
%TO.C,R4*%
X152837500Y-101840000D03*
X151187500Y-101840000D03*
%TD*%
D12*
%TO.C,C22*%
X160935000Y-60710000D03*
X160935000Y-61670000D03*
%TD*%
D16*
%TO.C,C10*%
X156350000Y-100230000D03*
X155390000Y-100230000D03*
%TD*%
D13*
%TO.C,C6*%
X169710000Y-87450000D03*
X169710000Y-86490000D03*
%TD*%
D16*
%TO.C,C9*%
X156350000Y-99280000D03*
X155390000Y-99280000D03*
%TD*%
D31*
%TO.C,U1*%
X141450000Y-93057500D03*
X141450000Y-95357500D03*
D32*
X147750000Y-95357500D03*
D31*
X141450000Y-97657500D03*
%TD*%
D10*
%TO.C,R6*%
X160720000Y-98225000D03*
X160720000Y-96575000D03*
%TD*%
D33*
%TO.C,J4*%
X156722540Y-101955000D03*
X157522540Y-101955000D03*
D34*
X158722540Y-101955000D03*
X159722540Y-101955000D03*
X160222540Y-101955000D03*
X161222540Y-101955000D03*
D33*
X162422540Y-101955000D03*
X163222540Y-101955000D03*
X163222540Y-101955000D03*
X162422540Y-101955000D03*
D34*
X161722540Y-101955000D03*
X160722540Y-101955000D03*
X159222540Y-101955000D03*
X158222540Y-101955000D03*
D33*
X157522540Y-101955000D03*
X156722540Y-101955000D03*
%TD*%
D16*
%TO.C,C26*%
X154907500Y-71705000D03*
X153947500Y-71705000D03*
%TD*%
D35*
%TO.C,D1*%
X149692500Y-105270000D03*
X152592500Y-105270000D03*
%TD*%
D36*
%TO.C,U2*%
X161950000Y-92550000D03*
X161950000Y-90950000D03*
X160350000Y-92550000D03*
X160350000Y-90950000D03*
D37*
X164587500Y-94350000D03*
X164587500Y-93950000D03*
X164587500Y-93550000D03*
X164587500Y-93150000D03*
X164587500Y-92750000D03*
X164587500Y-92350000D03*
X164587500Y-91950000D03*
X164587500Y-91550000D03*
X164587500Y-91150000D03*
X164587500Y-90750000D03*
X164587500Y-90350000D03*
X164587500Y-89950000D03*
X164587500Y-89550000D03*
X164587500Y-89150000D03*
D38*
X163750000Y-88312500D03*
X163350000Y-88312500D03*
X162950000Y-88312500D03*
X162550000Y-88312500D03*
X162150000Y-88312500D03*
X161750000Y-88312500D03*
X161350000Y-88312500D03*
X160950000Y-88312500D03*
X160550000Y-88312500D03*
X160150000Y-88312500D03*
X159750000Y-88312500D03*
X159350000Y-88312500D03*
X158950000Y-88312500D03*
X158550000Y-88312500D03*
D37*
X157712500Y-89150000D03*
X157712500Y-89550000D03*
X157712500Y-89950000D03*
X157712500Y-90350000D03*
X157712500Y-90750000D03*
X157712500Y-91150000D03*
X157712500Y-91550000D03*
X157712500Y-91950000D03*
X157712500Y-92350000D03*
X157712500Y-92750000D03*
X157712500Y-93150000D03*
X157712500Y-93550000D03*
X157712500Y-93950000D03*
X157712500Y-94350000D03*
D38*
X158550000Y-95187500D03*
X158950000Y-95187500D03*
X159350000Y-95187500D03*
X159750000Y-95187500D03*
X160150000Y-95187500D03*
X160550000Y-95187500D03*
X160950000Y-95187500D03*
X161350000Y-95187500D03*
X161750000Y-95187500D03*
X162150000Y-95187500D03*
X162550000Y-95187500D03*
X162950000Y-95187500D03*
X163350000Y-95187500D03*
X163750000Y-95187500D03*
%TD*%
D16*
%TO.C,C32*%
X148420000Y-68240000D03*
X147460000Y-68240000D03*
%TD*%
D10*
%TO.C,R13*%
X159495000Y-78505000D03*
X159495000Y-76855000D03*
%TD*%
D39*
%TO.C,U3*%
X166600000Y-67800000D03*
X165950000Y-67800000D03*
X165300000Y-67800000D03*
X164650000Y-67800000D03*
X164000000Y-67800000D03*
X163350000Y-67800000D03*
X162700000Y-67800000D03*
X162050000Y-67800000D03*
X161400000Y-67800000D03*
X160750000Y-67800000D03*
X160100000Y-67800000D03*
X159450000Y-67800000D03*
X158800000Y-67800000D03*
X158150000Y-67800000D03*
X158150000Y-75000000D03*
X158800000Y-75000000D03*
X159450000Y-75000000D03*
X160100000Y-75000000D03*
X160750000Y-75000000D03*
X161400000Y-75000000D03*
X162050000Y-75000000D03*
X162700000Y-75000000D03*
X163350000Y-75000000D03*
X164000000Y-75000000D03*
X164650000Y-75000000D03*
X165300000Y-75000000D03*
X165950000Y-75000000D03*
X166600000Y-75000000D03*
%TD*%
D13*
%TO.C,C13*%
X153660000Y-93850000D03*
X153660000Y-92890000D03*
%TD*%
D10*
%TO.C,R12*%
X157605000Y-65945000D03*
X157605000Y-64295000D03*
%TD*%
D16*
%TO.C,C28*%
X150154167Y-71705000D03*
X149194167Y-71705000D03*
%TD*%
D25*
%TO.C,L2*%
X151665000Y-70460000D03*
X150090000Y-70460000D03*
%TD*%
D16*
%TO.C,C17*%
X154360000Y-96835000D03*
X153400000Y-96835000D03*
%TD*%
D12*
%TO.C,C33*%
X157335000Y-76630000D03*
X157335000Y-77590000D03*
%TD*%
D40*
%TO.C,U4*%
X160320000Y-99200000D03*
X159620000Y-99200000D03*
X159970000Y-100050000D03*
%TD*%
D16*
%TO.C,C31*%
X151420000Y-68240000D03*
X150460000Y-68240000D03*
%TD*%
D12*
%TO.C,C20*%
X161935000Y-60710000D03*
X161935000Y-61670000D03*
%TD*%
D16*
%TO.C,C11*%
X154360000Y-95880000D03*
X153400000Y-95880000D03*
%TD*%
M02*
